#!OML:ASF F:\VICON\USERDATA\INSTALL\rory3\rory3.ASF
:FULLY-SPECIFIED
:DEGREES
761
root -1.10604 28.7699 -4.04248 2.51122 5.97842 4.27668
lowerback 4.68383 -0.404163 -5.26062
upperback 1.12652 -0.767138 1.34244
thorax -1.37665 -0.368959 4.38834
lowerneck -12.6395 2.39799 -9.13669
upperneck 42.5756 7.41331 -0.940942
head 17.6981 1.46305 2.53263
rclavicle -1.04362e-014 1.35174e-014
rhumerus -31.3816 -10.0847 -77.3772
rradius 35.6067
rwrist 20.1327
rhand -20.3673 2.39251
rfingers 7.12502
rthumb 5.98518 -27.503
lclavicle -1.04362e-014 1.35174e-014
lhumerus -33.7796 12.6382 78.1302
lradius 32.6897
lwrist -4.86091
lhand -12.8018 27.5188
lfingers 7.12502
lthumb 13.2842 57.0754
rfemur -31.3945 0.897639 13.5821
rtibia 46.3147
rfoot 2.59195 -7.85182
rtoes 5.33637
lfemur -7.16802 -1.31728 -29.6855
ltibia 26.7099
lfoot -17.0112 -0.386905
ltoes -7.74662
762
root -1.10255 28.7389 -3.98937 2.43438 6.01728 4.28346
lowerback 4.65401 -0.417046 -5.2653
upperback 1.17268 -0.782799 1.29374
thorax -1.31112 -0.379747 4.34027
lowerneck -12.4596 2.41623 -9.01159
upperneck 42.3703 7.39431 -1.0409
head 17.5424 1.47882 2.4503
rclavicle -1.19271e-014 2.06736e-014
rhumerus -31.4916 -10.1583 -77.3602
rradius 35.654
rwrist 20.2364
rhand -20.4183 2.7334
rfingers 7.12502
rthumb 5.93601 -27.1634
lclavicle -1.19271e-014 2.06736e-014
lhumerus -33.6921 12.3579 78.1045
lradius 32.6183
lwrist -4.79572
lhand -13.1063 27.113
lfingers 7.12502
lthumb 12.9908 56.6886
rfemur -31.3256 1.30227 13.515
rtibia 44.9669
rfoot 3.26043 -7.64504
rtoes 5.7485
lfemur -7.22778 -1.20992 -29.6995
ltibia 27.4546
lfoot -17.6182 -0.374671
ltoes -7.77733
763
root -1.09738 28.7056 -3.93828 2.39582 6.09646 4.18651
lowerback 4.58909 -0.447446 -5.13068
upperback 1.20122 -0.813032 1.29065
thorax -1.24399 -0.397697 4.26122
lowerneck -12.3692 2.41605 -9.00644
upperneck 42.2693 7.3554 -1.01385
head 17.4587 1.47625 2.44932
rclavicle 1.74931e-014 -2.54444e-014
rhumerus -31.606 -10.1525 -77.341
rradius 35.8263
rwrist 20.2437
rhand -20.3501 2.48853
rfingers 7.12502
rthumb 6.00186 -27.4065
lclavicle 1.74931e-014 -2.54444e-014
lhumerus -33.6859 11.9805 78.1891
lradius 32.7348
lwrist -4.87128
lhand -13.3737 27.2752
lfingers 7.12502
lthumb 12.733 56.867
rfemur -31.2875 1.61026 13.5764
rtibia 43.6744
rfoot 3.84302 -7.28148
rtoes 5.27011
lfemur -7.42696 -1.08798 -29.6074
ltibia 28.3108
lfoot -18.2452 -0.358299
ltoes -7.98728
764
root -1.09322 28.6673 -3.89102 2.34485 6.2386 4.12474
lowerback 4.61402 -0.480652 -5.05518
upperback 1.22598 -0.854418 1.29793
thorax -1.22884 -0.419465 4.22839
lowerneck -12.5168 2.36097 -9.24489
upperneck 42.2998 7.29499 -0.835732
head 17.4958 1.43302 2.56715
rclavicle -4.07509e-015 -3.18055e-015
rhumerus -31.6816 -10.3017 -77.2518
rradius 35.9307
rwrist 20.3503
rhand -20.2474 2.37911
rfingers 7.12502
rthumb 6.10095 -27.513
lclavicle -4.07509e-015 -3.18055e-015
lhumerus -33.668 11.7209 78.2616
lradius 32.9324
lwrist -5.01463
lhand -13.1546 27.2077
lfingers 7.12502
lthumb 12.9441 56.7862
rfemur -31.1826 1.80964 13.6229
rtibia 42.4448
rfoot 4.21261 -6.82317
rtoes 6.00506
lfemur -7.69757 -1.01996 -29.5538
ltibia 29.3025
lfoot -18.9315 -0.352732
ltoes -7.84404
765
root -1.08977 28.6263 -3.83971 2.28258 6.31758 4.09101
lowerback 4.64279 -0.519275 -5.04271
upperback 1.20975 -0.907245 1.28561
thorax -1.25628 -0.444747 4.21193
lowerneck -12.4952 2.35561 -9.26192
upperneck 42.3053 7.26638 -0.784464
head 17.4897 1.42542 2.58781
rclavicle 1.68967e-015 -1.66979e-014
rhumerus -31.8767 -10.3481 -77.2099
rradius 36.0143
rwrist 20.3416
rhand -20.3597 2.39858
rfingers 7.12502
rthumb 5.99257 -27.4967
lclavicle 1.68967e-015 -1.66979e-014
lhumerus -33.7967 11.6166 78.1937
lradius 33.0839
lwrist -4.9918
lhand -13.0533 26.5569
lfingers 7.12502
lthumb 13.0418 56.1292
rfemur -31.0351 1.98326 13.6829
rtibia 41.288
rfoot 4.56654 -6.24566
rtoes 6.90029
lfemur -7.99767 -0.903195 -29.5372
ltibia 30.3921
lfoot -19.6519 -0.221774
ltoes -8.01111
766
root -1.0876 28.5847 -3.78732 2.17658 6.38231 3.87383
lowerback 4.66596 -0.558988 -4.84477
upperback 1.2328 -0.951054 1.31653
thorax -1.24359 -0.467808 4.13456
lowerneck -12.5323 2.372 -9.25694
upperneck 42.3206 7.26 -0.700415
head 17.5005 1.43292 2.62556
rclavicle 1.90833e-014 -1.82882e-014
rhumerus -32.0304 -10.2076 -77.2349
rradius 36.1914
rwrist 20.3158
rhand -20.2586 2.19491
rfingers 7.12502
rthumb 6.09019 -27.6975
lclavicle 1.90833e-014 -1.82882e-014
lhumerus -33.8992 11.247 78.1979
lradius 33.3131
lwrist -4.81676
lhand -13.1817 26.4536
lfingers 7.12502
lthumb 12.9181 56.0337
rfemur -30.8656 2.18497 13.9851
rtibia 40.2012
rfoot 4.87014 -5.82252
rtoes 6.6934
lfemur -8.29562 -0.763147 -29.3203
ltibia 31.5437
lfoot -20.4181 0.0706464
ltoes -9.09803
767
root -1.08478 28.5402 -3.73626 2.01869 6.51973 3.73188
lowerback 4.73722 -0.581749 -4.7313
upperback 1.30252 -0.977129 1.383
thorax -1.20951 -0.483395 4.14132
lowerneck -12.6186 2.37279 -9.31133
upperneck 42.303 7.29396 -0.706279
head 17.5101 1.4369 2.64062
rclavicle 1.21259e-014 2.8625e-014
rhumerus -32.0858 -10.0046 -77.1492
rradius 36.3823
rwrist 20.1818
rhand -20.1423 1.79565
rfingers 7.12502
rthumb 6.20247 -28.0935
lclavicle 1.21259e-014 2.8625e-014
lhumerus -33.897 10.8926 78.3605
lradius 33.4992
lwrist -4.59484
lhand -13.3011 26.9304
lfingers 7.12502
lthumb 12.8029 56.5178
rfemur -30.6183 2.30488 14.2108
rtibia 39.1865
rfoot 5.11016 -5.64832
rtoes 5.84548
lfemur -8.50313 -0.656769 -29.1827
ltibia 32.7097
lfoot -21.1781 0.247729
ltoes -10.027
768
root -1.0804 28.4889 -3.68705 1.84444 6.64103 3.64776
lowerback 4.8009 -0.556195 -4.6142
upperback 1.40189 -0.93824 1.41834
thorax -1.14813 -0.467725 4.10976
lowerneck -12.6869 2.31239 -9.34714
upperneck 42.262 7.23417 -0.736764
head 17.5099 1.4046 2.62467
rclavicle -1.59028e-015 -2.38542e-014
rhumerus -32.0876 -9.9007 -77.0331
rradius 36.4604
rwrist 19.7265
rhand -20.2777 1.9988
rfingers 7.12502
rthumb 6.07175 -27.8942
lclavicle -1.59028e-015 -2.38542e-014
lhumerus -33.7068 10.6369 78.5499
lradius 33.5155
lwrist -4.37707
lhand -13.374 27.3891
lfingers 7.12502
lthumb 12.7326 56.9809
rfemur -30.373 2.30412 14.4029
rtibia 38.2324
rfoot 5.50577 -5.69967
rtoes 5.35934
lfemur -8.68109 -0.591659 -29.1269
ltibia 33.8979
lfoot -21.9059 0.443456
ltoes -10.2145
769
root -1.07495 28.438 -3.63644 1.64195 6.70049 3.52412
lowerback 4.87646 -0.531791 -4.44621
upperback 1.4916 -0.899571 1.42067
thorax -1.10471 -0.451307 4.01539
lowerneck -12.6448 2.28843 -9.27388
upperneck 42.1933 7.1796 -0.778127
head 17.4674 1.39421 2.58099
rclavicle 5.36719e-015 -6.36111e-015
rhumerus -32.1208 -9.9635 -76.9809
rradius 36.4993
rwrist 19.6457
rhand -20.4554 2.3444
rfingers 7.12502
rthumb 5.90016 -27.5535
lclavicle 5.36719e-015 -6.36111e-015
lhumerus -33.5922 10.3782 78.6472
lradius 33.6134
lwrist -4.2273
lhand -13.3804 27.5601
lfingers 7.12502
lthumb 12.7265 57.1522
rfemur -30.0829 2.31668 14.6566
rtibia 37.3101
rfoot 6.09714 -5.952
rtoes 5.31958
lfemur -8.86638 -0.488696 -29.0184
ltibia 35.0795
lfoot -22.6619 0.520528
ltoes -10.0394
770
root -1.07139 28.3851 -3.58451 1.44835 6.74873 3.42154
lowerback 4.94346 -0.543567 -4.37593
upperback 1.55734 -0.913167 1.46113
thorax -1.07344 -0.460217 4.01883
lowerneck -12.5404 2.31025 -9.23807
upperneck 42.0934 7.20862 -0.854801
head 17.3881 1.41022 2.53854
rclavicle -9.14409e-015 9.54166e-015
rhumerus -32.1417 -9.79071 -76.9516
rradius 36.5275
rwrist 19.7622
rhand -20.5084 2.25039
rfingers 7.12502
rthumb 5.84899 -27.6489
lclavicle -9.14409e-015 9.54166e-015
lhumerus -33.5794 10.2898 78.711
lradius 33.7473
lwrist -4.15678
lhand -13.3451 27.6243
lfingers 7.12502
lthumb 12.7605 57.2143
rfemur -29.7197 2.29084 14.9002
rtibia 36.3854
rfoot 6.62212 -6.50708
rtoes 5.37077
lfemur -9.08598 -0.411841 -28.9185
ltibia 36.2814
lfoot -23.4095 0.563794
ltoes -9.96044
771
root -1.06917 28.338 -3.53173 1.2994 6.8011 3.31871
lowerback 4.98072 -0.543402 -4.3386
upperback 1.60286 -0.910723 1.55448
thorax -1.04655 -0.460708 4.09472
lowerneck -12.5196 2.27787 -9.40675
upperneck 42.1062 7.20009 -0.828215
head 17.3847 1.38422 2.5781
rclavicle -5.96354e-015 -6.36111e-015
rhumerus -32.1524 -9.64097 -76.8055
rradius 36.5311
rwrist 19.8685
rhand -20.4721 2.26425
rfingers 7.12502
rthumb 5.88401 -27.6341
lclavicle -5.96354e-015 -6.36111e-015
lhumerus -33.5666 10.2009 78.8691
lradius 33.8676
lwrist -4.25726
lhand -13.2863 27.4188
lfingers 7.12502
lthumb 12.8172 57.0053
rfemur -29.3364 2.30449 15.1378
rtibia 35.4209
rfoot 7.00987 -7.43448
rtoes 5.81331
lfemur -9.39133 -0.342364 -28.8041
ltibia 37.4975
lfoot -24.0894 0.525869
ltoes -9.82076
772
root -1.06703 28.2922 -3.477 1.12097 6.82583 3.27453
lowerback 5.00886 -0.530193 -4.35547
upperback 1.68098 -0.8934 1.60494
thorax -0.982276 -0.455349 4.15545
lowerneck -12.5421 2.24451 -9.52919
upperneck 42.167 7.17858 -0.781246
head 17.4206 1.35864 2.61958
rclavicle -1.2921e-015 9.54166e-015
rhumerus -32.1925 -9.39653 -76.7388
rradius 36.6462
rwrist 19.7224
rhand -20.3994 1.975
rfingers 7.12502
rthumb 5.95425 -27.9213
lclavicle -1.2921e-015 9.54166e-015
lhumerus -33.4434 10.0744 79.0131
lradius 33.8679
lwrist -4.2983
lhand -13.3274 27.0367
lfingers 7.12502
lthumb 12.7776 56.6257
rfemur -28.8739 2.32866 15.3344
rtibia 34.4821
rfoot 7.32029 -8.52232
rtoes 6.92471
lfemur -9.69011 -0.248232 -28.7534
ltibia 38.699
lfoot -24.6621 0.448784
ltoes -9.55358
773
root -1.06443 28.2433 -3.42028 0.894556 6.83333 3.22454
lowerback 5.10383 -0.518073 -4.30659
upperback 1.73395 -0.878088 1.60189
thorax -0.983115 -0.448605 4.12479
lowerneck -12.4949 2.2557 -9.56253
upperneck 42.2301 7.16887 -0.691232
head 17.4364 1.35951 2.66479
rclavicle -6.36111e-015 -7.15625e-015
rhumerus -32.3097 -9.10797 -76.7717
rradius 36.793
rwrist 19.5024
rhand -20.514 1.86055
rfingers 7.12502
rthumb 5.84357 -28.0389
lclavicle -6.36111e-015 -7.15625e-015
lhumerus -33.4095 9.9658 79.0166
lradius 33.8861
lwrist -4.27205
lhand -13.309 27.2307
lfingers 7.12502
lthumb 12.7954 56.8186
rfemur -28.3428 2.39859 15.5349
rtibia 33.6031
rfoot 7.62096 -9.55301
rtoes 7.53045
lfemur -9.84332 -0.134214 -28.6953
ltibia 39.8586
lfoot -25.3701 0.516844
ltoes -9.83885
